<?xml version="1.0" encoding="utf-8"?>
<!-- Generator: Adobe Illustrator 19.1.0, SVG Export Plug-In . SVG Version: 6.00 Build 0)  -->
<svg version="1.1"
	 id="svg2" xmlns:rdf="http://www.w3.org/1999/02/22-rdf-syntax-ns#" xmlns:cc="http://creativecommons.org/ns#" xmlns:dc="http://purl.org/dc/elements/1.1/"
	 xmlns="http://www.w3.org/2000/svg" xmlns:xlink="http://www.w3.org/1999/xlink" x="0px" y="0px" viewBox="-388 206.9 182.3 148.1"
	 style="enable-background:new -388 206.9 182.3 148.1;" xml:space="preserve">
<style type="text/css">
	.st0{clip-path:url(#SVGID_2_);}
	.st1{fill:#55ACEE;}
	.st2{opacity:0.65;}
	.st3{fill:#729FCF;}
	.st4{fill:#EEEEEC;}
</style>
<g id="g10" transform="matrix(1.3333 0 0 -1.3333 0 150.67)">
	<g id="g12" transform="scale(.1)">
		<g id="g14">
			<g>
				<defs>
					<rect id="SVGID_1_" x="-2317.7" y="-1049.4" width="179.2" height="145.6"/>
				</defs>
				<clipPath id="SVGID_2_">
					<use xlink:href="#SVGID_1_"  style="overflow:visible;"/>
				</clipPath>
				<g id="g16" class="st0">
					<path id="path22" class="st1" d="M-1556.2-559.9c-49.4-21.9-102.6-36.8-158.3-43.4c56.9,34.1,100.6,88.2,121.2,152.5
						c-53.3-31.6-112.3-54.5-175.1-66.9c-50.3,53.6-121.9,87.1-201.2,87.1c-152.3,0-275.7-123.4-275.7-275.7
						c0-21.6,2.4-42.7,7.1-62.8c-229.1,11.5-432.3,121.3-568.3,288.1c-23.7-40.7-37.3-88.1-37.3-138.6c0-95.7,48.7-180,122.7-229.5
						c-45.2,1.4-87.7,13.8-124.9,34.5c0-1.2,0-2.3,0-3.5c0-133.6,95-245,221.2-270.4c-23.1-6.3-47.5-9.6-72.6-9.6
						c-17.8,0-35,1.7-51.9,4.9c35.1-109.5,136.9-189.2,257.6-191.5c-94.4-74-213.3-118-342.5-118c-22.2,0-44.2,1.3-65.8,3.8
						c122.1-78.2,267-123.9,422.7-123.9c507.1,0,784.4,420.1,784.4,784.4c0,11.9-0.3,23.8-0.8,35.6
						C-1640-663.7-1593.3-615.2-1556.2-559.9"/>
				</g>
			</g>
		</g>
	</g>
</g>
<g id="layer1" transform="translate(0,-954.36218)" inkscape:label="Calque 1" inkscape:groupmode="layer" class="st2">
	<g id="g4449">
		<path id="path2844" class="st3" d="M-262.8,1201.5c0,15.6-15.9,28.3-35.5,28.3s-35.5-12.6-35.5-28.3c0-15.6,15.9-28.3,35.5-28.3
			S-262.8,1185.9-262.8,1201.5z"/>
		<path id="path2844-3" class="st4" d="M-264.4,1202.5c0,15.5-15.3,28-34.1,28c-18.8,0-34.1-12.6-34.1-28c0-15.5,15.3-28,34.1-28
			S-264.4,1187-264.4,1202.5z"/>
		<path id="path2844-9" class="st4" d="M-261.3,1237.4c0,14.2-12.9,25.6-28.8,25.6c-15.9,0-28.8-11.5-28.8-25.6
			c0-14.2,12.9-25.6,28.8-25.6C-274.2,1211.7-261.3,1223.2-261.3,1237.4L-261.3,1237.4z"/>
		<path id="path2844-5" class="st3" d="M-238.6,1217.6c0,14.2-12.9,25.6-28.8,25.6c-15.9,0-28.8-11.5-28.8-25.6
			c0-14.2,12.9-25.6,28.8-25.6C-251.5,1191.9-238.6,1203.4-238.6,1217.6z"/>
		<path id="path2844-11" class="st3" d="M-302.7,1225.7c0,14.2-12.9,25.6-28.8,25.6c-15.9,0-28.8-11.5-28.8-25.6
			c0-14.2,12.9-25.6,28.8-25.6C-315.6,1200.1-302.7,1211.6-302.7,1225.7z"/>
		<path id="path2844-11-1" class="st4" d="M-299.9,1227c0,14.2-13.2,25.6-29.6,25.6s-29.6-11.5-29.6-25.6
			c0-14.2,13.2-25.6,29.6-25.6S-299.9,1212.9-299.9,1227z"/>
		<path id="path2844-1" class="st3" d="M-337.1,1248.1c0,11.4-10.3,20.7-23,20.7c-12.7,0-23-9.3-23-20.7s10.3-20.7,23-20.7
			C-347.4,1227.5-337.1,1236.7-337.1,1248.1z"/>
		<path id="path2844-1-76" class="st4" d="M-336.4,1248.6c0,10.7-10.1,19.4-22.6,19.4s-22.6-8.7-22.6-19.4s10.1-19.4,22.6-19.4
			S-336.4,1237.9-336.4,1248.6z"/>
		<path id="path2844-5-4" class="st4" d="M-238.1,1220c0,14.8-13.1,26.9-29.3,26.9s-29.3-12-29.3-26.9s13.1-26.9,29.3-26.9
			S-238.1,1205.2-238.1,1220z"/>
		<path id="path2844-2" class="st3" d="M-210.1,1226.3c0,14.2-12.9,25.6-28.8,25.6s-28.8-11.5-28.8-25.6c0-14.2,12.9-25.6,28.8-25.6
			S-210.1,1212.1-210.1,1226.3z"/>
		<path id="path2844-2-2" class="st4" d="M-210.9,1226.2c0,13.4-13,24.2-29,24.2s-29-10.8-29-24.2c0-13.4,13-24.2,29-24.2
			S-210.9,1212.8-210.9,1226.2z"/>
		<path id="path2844-1-7" class="st3" d="M-335.3,1264.7c0,7.6-6,13.7-13.4,13.7c-7.4,0-13.4-6.1-13.4-13.7c0-7.6,6-13.7,13.4-13.7
			C-341.3,1251.1-335.3,1257.2-335.3,1264.7z"/>
		<path id="path2844-1-7-2" class="st4" d="M-334.9,1263.9c0,7.4-5.9,13.5-13.2,13.5c-7.3,0-13.2-6-13.2-13.5s5.9-13.5,13.2-13.5
			C-340.8,1250.4-334.9,1256.4-334.9,1263.9z"/>
		<path id="path2844-4" class="st3" d="M-286.4,1260.7c0,14.2-12.9,25.6-28.8,25.6s-28.8-11.5-28.8-25.6c0-14.2,12.9-25.6,28.8-25.6
			S-286.4,1246.5-286.4,1260.7z"/>
		<path id="path2844-4-2" class="st4" d="M-286.2,1260c0,13.9-12.6,25.1-28.2,25.1c-15.5,0-28.2-11.2-28.2-25.1
			c0-13.9,12.6-25.1,28.2-25.1C-298.8,1234.9-286.2,1246.1-286.2,1260z"/>
		<path id="path2844-8" class="st3" d="M-222.9,1249c0,14.2-12.9,25.6-28.8,25.6c-15.9,0-28.8-11.5-28.8-25.6
			c0-14.2,12.9-25.6,28.8-25.6C-235.8,1223.4-222.9,1234.9-222.9,1249L-222.9,1249z"/>
		<path id="path2844-8-1" class="st4" d="M-224.4,1248.7c0,13.6-12.9,24.7-28.9,24.7s-28.9-11-28.9-24.7s12.9-24.7,28.9-24.7
			S-224.4,1235.1-224.4,1248.7L-224.4,1248.7z"/>
		<path id="path2844-1-7-6" class="st3" d="M-278.8,1281.2c-9.2,1.5-17.9-4.4-19.4-13.2c-1.5-8.8,4.7-17.2,13.9-18.7
			c9.2-1.5,17.9,4.4,19.4,13.2C-263.3,1271.3-269.6,1279.7-278.8,1281.2z"/>
		<path id="path2844-1-7-6-5" class="st4" d="M-278.4,1279.6c-9,1.5-17.6-4.4-19.1-13.2s4.6-17.2,13.7-18.7
			c9-1.5,17.6,4.4,19.1,13.2S-269.4,1278.1-278.4,1279.6z"/>
	</g>
</g>
</svg>
